<?xml version="1.0" ?><!DOCTYPE svg  PUBLIC '-//W3C//DTD SVG 1.1//EN'  'http://www.w3.org/Graphics/SVG/1.1/DTD/svg11.dtd'><svg enable-background="new 0 0 24 24" height="24px" id="Layer_1" version="1.1" viewBox="0 0 24 24" width="24px" xml:space="preserve" xmlns="http://www.w3.org/2000/svg" xmlns:xlink="http://www.w3.org/1999/xlink"><g><path d="M5,17v1c0.6,0,1,0.4,1,1h1C7,17.9,6.1,17,5,17z"/><path d="M18.7,5.5C17.8,2.2,16,0,10,0v0H8v15c-0.8-0.6-1.9-1-3-1c-2.8,0-5,2.2-5,5s2.2,5,5,5s5-2.2,5-5V6c2,0,3.3,0.1,4.4,1.7   c2,3,6.6,5.3,9.6,5.3v-0.3C22,11.8,19.8,9.4,18.7,5.5z M5,22c-1.7,0-3-1.3-3-3s1.3-3,3-3s3,1.3,3,3S6.7,22,5,22z M15.2,7   C14.3,5.8,13,5,10,5V1c4,0,6.7,1.4,7.5,4.5c0.6,2.2,1.5,4,2.4,5.4C17.8,9.9,16.3,8.7,15.2,7z"/></g></svg>